<svg width="31" height="30" viewBox="0 0 31 30" fill="none" xmlns="http://www.w3.org/2000/svg">
<g clip-path="url(#clip0_40_2)">
<path d="M26.8406 0H4.34058C2.27245 0 0.590576 1.68187 0.590576 3.75V26.25C0.590576 28.3181 2.27245 30 4.34058 30H26.8406C28.9087 30 30.5906 28.3181 30.5906 26.25V3.75C30.5906 1.68187 28.9087 0 26.8406 0Z" fill="#1976D2"/>
<path fill-rule="evenodd" clip-rule="evenodd" d="M22.6531 12.375H17.9656V8.625C17.9656 7.59 18.8056 7.6875 19.8406 7.6875H21.7156V3H17.9656C16.4737 3 15.043 3.59263 13.9881 4.64752C12.9332 5.70242 12.3406 7.13316 12.3406 8.625V12.375H8.59058V17.0625H12.3406V27.375H17.9656V17.0625H20.7781L22.6531 12.375Z" fill="#FAFAFA"/>
</g>
<defs>
<clipPath id="clip0_40_2">
<rect width="30" height="30" fill="white" transform="translate(0.590576)"/>
</clipPath>
</defs>
</svg>
