<svg width="45" height="30" viewBox="0 0 45 30" fill="none" xmlns="http://www.w3.org/2000/svg">
<path fill-rule="evenodd" clip-rule="evenodd" d="M43.0875 2.89091C41.8669 0.785454 40.5422 0.398182 37.845 0.250909C35.1506 0.0736364 28.3753 0 22.5056 0C16.6247 0 9.84656 0.0736366 7.155 0.248182C4.46344 0.398182 3.13594 0.782727 1.90406 2.89091C0.646875 4.99364 0 8.61545 0 14.9918V15.0136C0 21.3627 0.646875 25.0118 1.90406 27.0927C3.13594 29.1982 4.46062 29.58 7.15219 29.7573C9.84656 29.91 16.6247 30 22.5056 30C28.3753 30 35.1506 29.91 37.8478 29.76C40.545 29.5827 41.8697 29.2009 43.0903 27.0955C44.3587 25.0145 45 21.3655 45 15.0164V14.9945C45 8.61545 44.3587 4.99364 43.0875 2.89091Z" fill="#F44336"/>
<path fill-rule="evenodd" clip-rule="evenodd" d="M16.8748 23.1819V6.81824L30.9373 15.0001L16.8748 23.1819Z" fill="#FAFAFA"/>
</svg>
