<svg width="31" height="30" viewBox="0 0 31 30" fill="none" xmlns="http://www.w3.org/2000/svg">
<path d="M30.6448 15C30.6448 23.2843 23.929 30 15.6448 30C7.3605 30 0.644775 23.2843 0.644775 15C0.644775 6.71573 7.3605 0 15.6448 0C23.929 0 30.6448 6.71573 30.6448 15Z" fill="#1778F2"/>
<path d="M23.1988 7.02303C22.9616 6.82564 22.6752 6.69627 22.3703 6.6487C22.0653 6.60112 21.7532 6.63712 21.4671 6.75285L6.53299 12.7823C6.21361 12.9137 5.94175 13.1391 5.75349 13.4287C5.56522 13.7182 5.46946 14.0581 5.47891 14.4033C5.48836 14.7486 5.60257 15.0827 5.80639 15.3615C6.0102 15.6403 6.29399 15.8505 6.62007 15.9643L9.6409 17.0149L11.3247 22.5829C11.3475 22.6573 11.3807 22.7281 11.4233 22.7933C11.4298 22.8033 11.4389 22.8107 11.4457 22.8204C11.4949 22.889 11.5543 22.9497 11.6219 23.0002C11.6412 23.0149 11.6596 23.0286 11.6801 23.0416C11.7592 23.0941 11.8468 23.1325 11.9391 23.155L11.9489 23.1559L11.9545 23.1583C12.01 23.1695 12.0664 23.1753 12.123 23.1754C12.1284 23.1754 12.1332 23.1728 12.1386 23.1727C12.224 23.1712 12.3087 23.1565 12.3895 23.1291C12.4084 23.1227 12.4245 23.1119 12.4427 23.1042C12.5031 23.0792 12.5602 23.0472 12.613 23.0087C12.6553 22.9731 12.6975 22.9375 12.7398 22.9019L14.9916 20.4158L18.3502 23.0175C18.6459 23.2477 19.0098 23.3728 19.3845 23.3731C19.7772 23.3726 20.1577 23.2371 20.4624 22.9894C20.767 22.7417 20.9772 22.3967 21.0577 22.0124L23.7766 8.66529C23.8383 8.36488 23.817 8.05338 23.7153 7.76411C23.6135 7.47484 23.435 7.21867 23.1988 7.02303ZM12.4534 17.2802C12.3379 17.3953 12.2589 17.5419 12.2264 17.7017L11.9684 18.9551L11.315 16.7942L14.7028 15.0301L12.4534 17.2802ZM19.3715 21.6999L15.4026 18.6254C15.2366 18.4971 15.0283 18.436 14.8192 18.4544C14.6102 18.4728 14.4158 18.5693 14.2747 18.7247L13.5535 19.5207L13.8084 18.282L19.7109 12.3795C19.8518 12.2388 19.9376 12.0522 19.9528 11.8537C19.9681 11.6552 19.9117 11.4578 19.794 11.2972C19.6762 11.1367 19.5048 11.0236 19.3109 10.9785C19.117 10.9334 18.9133 10.9592 18.7368 11.0513L10.2657 15.4619L7.16206 14.3261L22.1441 8.33242L19.3715 21.6999Z" fill="white"/>
</svg>
