<svg width="31" height="30" viewBox="0 0 31 30" fill="none" xmlns="http://www.w3.org/2000/svg">
<g clip-path="url(#clip0_40_13)">
<path d="M8.14397 29.8938C6.9836 29.8809 5.83413 29.6681 4.74603 29.2647C3.95146 28.971 3.23257 28.5034 2.64192 27.8962C2.03302 27.3067 1.56476 26.5876 1.27192 25.7924C0.868901 24.7043 0.656381 23.5549 0.64368 22.3947C0.554562 20.4659 0.536621 19.8874 0.536621 15C0.536621 10.1126 0.556327 9.53618 0.642798 7.60588C0.657039 6.44611 0.869822 5.29734 1.27192 4.20941C1.56619 3.41471 2.03379 2.69553 2.64074 2.10412C3.23066 1.49577 3.94989 1.02795 4.74515 0.735294C5.83325 0.331946 6.98271 0.119126 8.14309 0.106176C10.0725 0.0179412 10.6519 0 15.5366 0C20.4213 0 21.0004 0.0197059 22.9307 0.106176C24.0908 0.120318 25.2399 0.333102 26.3281 0.735294C27.123 1.02833 27.842 1.496 28.4322 2.10382C29.0402 2.69419 29.5081 3.41341 29.8013 4.20853C30.2048 5.29661 30.4177 6.44608 30.4307 7.60647C30.519 9.53677 30.5369 10.1147 30.5369 15.0006C30.5369 19.8865 30.519 20.4644 30.4307 22.3947C30.4167 23.5549 30.2038 24.7041 29.8013 25.7924C29.4969 26.5815 29.0305 27.2982 28.4323 27.8962C27.8341 28.4943 27.1173 28.9604 26.3281 29.2647C25.24 29.6681 24.0905 29.8811 22.9302 29.8941C21.0016 29.9824 20.4219 30.0003 15.536 30.0003C10.6502 30.0003 10.0722 29.9832 8.14368 29.8941" fill="url(#paint0_radial_40_13)"/>
<path d="M11.9672 15.1444C11.9673 14.4096 12.1852 13.6914 12.5935 13.0805C13.0018 12.4696 13.582 11.9935 14.2609 11.7123C14.9397 11.4312 15.6867 11.3577 16.4074 11.5012C17.128 11.6446 17.7899 11.9985 18.3094 12.5181C18.8289 13.0377 19.1827 13.6997 19.3259 14.4204C19.4692 15.1411 19.3955 15.8881 19.1142 16.5669C18.8329 17.2457 18.3567 17.8258 17.7457 18.2339C17.1347 18.642 16.4164 18.8598 15.6816 18.8597C14.6964 18.8596 13.7516 18.468 13.055 17.7713C12.3584 17.0745 11.9671 16.1296 11.9672 15.1444ZM9.95868 15.1444C9.95868 16.2763 10.2943 17.3828 10.9232 18.3239C11.552 19.265 12.4458 19.9986 13.4915 20.4317C14.5373 20.8649 15.688 20.9782 16.7981 20.7574C17.9083 20.5366 18.928 19.9915 19.7284 19.1911C20.5287 18.3908 21.0738 17.371 21.2946 16.2609C21.5154 15.1508 21.4021 14.0001 20.9689 12.9543C20.5358 11.9086 19.8022 11.0148 18.8611 10.386C17.92 9.75711 16.8135 9.42147 15.6816 9.42147C14.9301 9.42143 14.1859 9.56943 13.4915 9.85702C12.7971 10.1446 12.1662 10.5662 11.6348 11.0976C11.1034 11.629 10.6818 12.2599 10.3942 12.9543C10.1066 13.6486 9.95864 14.3929 9.95868 15.1444ZM20.2937 9.1947C20.2936 9.45921 20.3719 9.71781 20.5187 9.9378C20.6656 10.1578 20.8744 10.3293 21.1187 10.4306C21.363 10.5319 21.6319 10.5586 21.8914 10.5071C22.1508 10.4556 22.3892 10.3283 22.5763 10.1414C22.7634 9.95441 22.8909 9.71618 22.9426 9.45678C22.9943 9.19738 22.9679 8.92847 22.8668 8.68405C22.7657 8.43964 22.5944 8.2307 22.3745 8.08366C22.1547 7.93661 21.8961 7.85806 21.6316 7.85794C21.2771 7.8581 20.9371 7.99897 20.6863 8.24961C20.4356 8.50025 20.2946 8.84016 20.2943 9.1947M11.1796 24.2165C10.4728 24.2087 9.77271 24.0794 9.10985 23.8341C8.62914 23.6488 8.19255 23.3649 7.82818 23.0007C7.46382 22.6365 7.17975 22.2 6.99426 21.7194C6.7489 21.0566 6.61957 20.3564 6.61192 19.6497C6.5578 18.475 6.54721 18.1221 6.54721 15.1459C6.54721 12.1697 6.55897 11.8176 6.61192 10.6418C6.62049 9.93512 6.7498 9.23513 6.99426 8.57205C7.17954 8.09119 7.46352 7.65449 7.82791 7.29011C8.19229 6.92572 8.62899 6.64174 9.10985 6.45647C9.77268 6.21111 10.4728 6.08177 11.1796 6.07412C12.3543 6.02 12.7072 6.00941 15.6822 6.00941C18.6572 6.00941 19.0104 6.02088 20.1863 6.07441C20.893 6.08299 21.593 6.2123 22.256 6.45676C22.7369 6.64205 23.1736 6.92604 23.538 7.29042C23.9023 7.65481 24.1863 8.0915 24.3716 8.57235C24.617 9.23518 24.7463 9.93532 24.754 10.6421C24.8081 11.8185 24.8187 12.1697 24.8187 15.1462C24.8187 18.1226 24.8078 18.4744 24.754 19.6503C24.7457 20.357 24.6164 21.057 24.3716 21.72C24.1861 22.2006 23.9021 22.6371 23.5377 23.0013C23.1733 23.3655 22.7367 23.6494 22.256 23.8347C21.5932 24.0801 20.8931 24.2094 20.1863 24.2171C19.0116 24.2712 18.6587 24.2818 15.6822 24.2818C12.7057 24.2818 12.354 24.2709 11.1796 24.2171M11.0872 4.06735C10.1625 4.08554 9.24749 4.26057 8.38132 4.585C7.64088 4.87128 6.96844 5.30913 6.4071 5.87048C5.84576 6.43182 5.4079 7.10426 5.12162 7.8447C4.79723 8.71088 4.6222 9.62584 4.60398 10.5506C4.54898 11.7388 4.53662 12.1188 4.53662 15.1456C4.53662 18.1724 4.54927 18.5521 4.60398 19.7406C4.6222 20.6653 4.79723 21.5803 5.12162 22.4465C5.40792 23.1869 5.84578 23.8593 6.40712 24.4207C6.96846 24.982 7.64089 25.4199 8.38132 25.7062C9.24753 26.0305 10.1625 26.2055 11.0872 26.2238C12.276 26.2779 12.6554 26.2912 15.6822 26.2912C18.709 26.2912 19.0887 26.2785 20.2772 26.2238C21.202 26.2056 22.1169 26.0305 22.9831 25.7062C23.7235 25.4199 24.396 24.982 24.9573 24.4207C25.5186 23.8593 25.9565 23.1869 26.2428 22.4465C26.5676 21.5804 26.7427 20.6654 26.7604 19.7406C26.8146 18.5515 26.8269 18.1724 26.8269 15.1456C26.8269 12.1188 26.8143 11.7391 26.7604 10.5506C26.7423 9.62583 26.5672 8.71087 26.2428 7.8447C25.9565 7.1044 25.5188 6.43206 24.9576 5.87074C24.3964 5.30941 23.7242 4.87148 22.984 4.585C22.1179 4.26036 21.2029 4.08532 20.2781 4.06735C19.0896 4.01294 18.7099 4 15.6837 4C12.6575 4 12.2769 4.01265 11.0878 4.06735" fill="white"/>
</g>
<defs>
<radialGradient id="paint0_radial_40_13" cx="0" cy="0" r="1" gradientUnits="userSpaceOnUse" gradientTransform="translate(2.47809 29.3429) scale(38.0888)">
<stop offset="0.09" stop-color="#FA8F21"/>
<stop offset="0.78" stop-color="#D82D7E"/>
</radialGradient>
<clipPath id="clip0_40_13">
<rect width="30" height="30" fill="white" transform="translate(0.536621)"/>
</clipPath>
</defs>
</svg>
